<svg xmlns="http://www.w3.org/2000/svg" width="30" height="28" viewBox="0 0 30 28"><defs><style>.a,.b,.e{fill:none;}.a{stroke-linecap:round;}.b{stroke:#fff;stroke-width:2px;}.c,.d{stroke:none;}.d{fill:#fff;}</style></defs><g transform="translate(-102 -24)"><g class="a" transform="translate(102 40.016)"><path class="c" d="M11.765,0h6.471C24.733,0,30,3.794,30,8.474s-30,4.68-30,0S5.267,0,11.765,0Z"/><path class="d" d="M 11.76469802856445 1.999997138977051 C 9.038358688354492 1.999997138977051 6.499118804931641 2.747496604919434 4.614707946777344 4.104796409606934 C 3.053936004638672 5.228991508483887 2.142257690429688 6.641990184783936 2.015331268310547 8.117267608642578 C 2.377473831176758 8.355667114257813 3.445951461791992 8.893457412719727 6.167047500610352 9.348326683044434 C 8.618808746337891 9.758176803588867 11.7557373046875 9.983896255493164 14.99999809265137 9.983896255493164 C 18.24425888061523 9.983896255493164 21.38118743896484 9.758176803588867 23.83294868469238 9.348326683044434 C 26.55404472351074 8.893457412719727 27.62252235412598 8.355667114257813 27.98466491699219 8.117267608642578 C 27.85773849487305 6.641990184783936 26.94606018066406 5.228991508483887 25.38528823852539 4.104796409606934 C 23.50087738037109 2.747496604919434 20.96162796020508 1.999997138977051 18.23528671264648 1.999997138977051 L 11.76469802856445 1.999997138977051 M 11.76469802856445 -2.86102294921875e-06 L 18.23528671264648 -2.86102294921875e-06 C 24.73275756835938 -2.86102294921875e-06 29.99999809265137 3.793887138366699 29.99999809265137 8.473886489868164 C 29.99999809265137 10.81389141082764 22.49999809265137 11.98389434814453 14.99999809265137 11.98389434814453 C 7.499998092651367 11.98389434814453 -1.9073486328125e-06 10.81389141082764 -1.9073486328125e-06 8.473886489868164 C -1.9073486328125e-06 3.793887138366699 5.267238616943359 -2.86102294921875e-06 11.76469802856445 -2.86102294921875e-06 Z"/></g><g class="b" transform="translate(109.803 24)"><ellipse class="c" cx="7.197" cy="7.275" rx="7.197" ry="7.275"/><ellipse class="e" cx="7.197" cy="7.275" rx="6.197" ry="6.275"/></g></g></svg>