<svg xmlns="http://www.w3.org/2000/svg" width="30" height="28" viewBox="0 0 30 28"><defs><style>.a{fill:#fff;}</style></defs><g transform="translate(-175 -100)"><path class="a" d="M9.666,18.667h15.94a.888.888,0,0,0,.845-.677L29.966,4.923a.98.98,0,0,0-.143-.818.863.863,0,0,0-.7-.371H7.639l-.628-3A.893.893,0,0,0,6.152,0H.879A.907.907,0,0,0,0,.933a.907.907,0,0,0,.879.933H5.447L8.62,17.031A2.814,2.814,0,0,0,7.031,19.6a2.725,2.725,0,0,0,2.637,2.8H25.605a.935.935,0,0,0,0-1.867H9.668a.935.935,0,0,1,0-1.866ZM27.956,5.6,24.942,16.8H10.373L8.029,5.6Zm0,0" transform="translate(175 100)"/><path class="a" d="M150,362.8a2.641,2.641,0,1,0,2.637-2.8A2.725,2.725,0,0,0,150,362.8Zm2.637-.933a.935.935,0,1,1-.879.933A.908.908,0,0,1,152.637,361.867Zm0,0" transform="translate(33.789 -237.6)"/><path class="a" d="M362,362.8a2.642,2.642,0,1,0,2.637-2.8A2.725,2.725,0,0,0,362,362.8Zm2.637-.933a.935.935,0,1,1-.879.933A.908.908,0,0,1,364.637,361.867Zm0,0" transform="translate(-165.789 -237.6)"/></g></svg>