<svg xmlns="http://www.w3.org/2000/svg" width="24" height="22" viewBox="0 0 24 22"><defs><style>.a{fill:none;stroke:#fff;stroke-linecap:round;stroke-linejoin:round;stroke-width:2px;}</style></defs><g transform="translate(-0.5 -0.5)"><path class="a" d="M14,30.952A1,1,0,1,1,13,30,.977.977,0,0,1,14,30.952Z" transform="translate(-3.5 -10.405)"/><path class="a" d="M30.5,30.952a1,1,0,1,1-1-.952A.977.977,0,0,1,30.5,30.952Z" transform="translate(-9 -10.405)"/><path class="a" d="M1.5,1.5h4L8.18,14.252a1.98,1.98,0,0,0,2,1.533H19.9a1.98,1.98,0,0,0,2-1.533l1.6-7.99H6.5" transform="translate(0 0)"/></g></svg>