<svg xmlns="http://www.w3.org/2000/svg" width="30" height="30" viewBox="0 0 30 30"><defs><style>.a{fill:#0466b9;}</style></defs><g transform="translate(0 0)"><path class="a" d="M25.607,4.393A15,15,0,0,0,4.393,25.607,15,15,0,1,0,25.607,4.393Zm-1.243,19.97A13.242,13.242,0,1,1,5.636,5.636,13.242,13.242,0,1,1,24.364,24.364Z" transform="translate(0 0)"/><g transform="translate(11.65 5.257)"><path class="a" d="M202.179,89.719a3.35,3.35,0,1,0,3.35,3.35A3.354,3.354,0,0,0,202.179,89.719Zm0,4.942a1.592,1.592,0,1,1,1.592-1.592A1.594,1.594,0,0,1,202.179,94.661Z" transform="translate(-198.829 -89.719)"/></g><g transform="translate(11.65 13.535)"><path class="a" d="M202.179,231.005a3.354,3.354,0,0,0-3.35,3.35v4.432a3.35,3.35,0,0,0,6.7,0v-4.432A3.354,3.354,0,0,0,202.179,231.005Zm1.592,7.782a1.592,1.592,0,1,1-3.185,0v-4.432a1.592,1.592,0,0,1,3.185,0Z" transform="translate(-198.829 -231.005)"/></g></g></svg>