<svg xmlns="http://www.w3.org/2000/svg" width="42.314" height="39.795" viewBox="0 0 42.314 39.795"><defs><style>.a{fill:#00c1e4;}.b{fill:#006da6;}.c{fill:#d5f2fb;}.d{fill:#9de3fb;}.e{fill:#003554;}</style></defs><path class="a" d="M151.483,399.976a3.674,3.674,0,1,1,3.765-3.673A3.724,3.724,0,0,1,151.483,399.976Zm0-4.867a1.2,1.2,0,1,0,1.286,1.193A1.244,1.244,0,0,0,151.483,395.109Zm0,0" transform="translate(-135.51 -360.181)"/><path class="b" d="M352.14,399.976a3.674,3.674,0,1,1,3.765-3.673A3.724,3.724,0,0,1,352.14,399.976Zm0-4.867a1.2,1.2,0,1,0,1.285,1.193A1.243,1.243,0,0,0,352.14,395.109Zm0,0" transform="translate(-319.584 -360.181)"/><path class="c" d="M229.356,2.479h-8.983a1.24,1.24,0,1,1,0-2.479h8.983a1.24,1.24,0,0,1,0,2.479Zm0,0" transform="translate(-201.023)"/><path class="d" d="M412.2,2.479H410.15a1.24,1.24,0,1,1,0-2.479H412.2a1.24,1.24,0,0,1,0,2.479Zm0,0" transform="translate(-375.116)"/><path class="a" d="M26.8,320.444H23.54a1.24,1.24,0,1,1,0-2.479H26.8a1.24,1.24,0,1,1,0,2.479Zm0,0" transform="translate(-20.458 -291.687)"/><path class="c" d="M102.522,118.989H78.25a1.239,1.239,0,0,1-1.208-.959l-4.174-17.974a1.24,1.24,0,0,1,1.208-1.52h33.815a1.24,1.24,0,0,1,1.188,1.594L103.71,118.1a1.24,1.24,0,0,1-1.188.885Zm0,0" transform="translate(-66.818 -90.392)"/><path class="d" d="M306.707,99.034a1.239,1.239,0,0,0-.994-.5H288.48v20.453h11.863a1.24,1.24,0,0,0,1.188-.885l5.37-17.974a1.239,1.239,0,0,0-.194-1.1Zm0,0" transform="translate(-264.638 -90.392)"/><path class="a" d="M205,118.99a1.24,1.24,0,0,1-1.235-1.157L202.554,99.86a1.24,1.24,0,0,1,2.474-.167l1.209,17.974a1.239,1.239,0,0,1-1.153,1.32l-.085,0Zm0,0" transform="translate(-185.811 -90.393)"/><path class="b" d="M328.064,118.991l-.078,0a1.24,1.24,0,0,1-1.161-1.314L327.937,99.7a1.24,1.24,0,1,1,2.474.153L329.3,117.828A1.24,1.24,0,0,1,328.064,118.991Zm0,0" transform="translate(-299.813 -90.395)"/><path class="b" d="M102.522,118.989H78.25a1.239,1.239,0,0,1-1.208-.959l-4.174-17.974a1.24,1.24,0,0,1,1.208-1.52h33.815a1.24,1.24,0,0,1,1.188,1.594L103.71,118.1a1.24,1.24,0,0,1-1.188.885ZM79.235,116.51H101.6l4.629-15.494H75.637Zm0,0" transform="translate(-66.818 -90.392)"/><path class="e" d="M306.707,99.034a1.239,1.239,0,0,0-.994-.5H288.48v2.479h15.569l-4.629,15.495H288.48v2.479h11.863a1.24,1.24,0,0,0,1.188-.885l5.37-17.974a1.239,1.239,0,0,0-.194-1.1Zm0,0" transform="translate(-264.638 -90.392)"/><path class="b" d="M36.5,78.541H13.042A3.491,3.491,0,0,1,9.6,74.468c0-.02.007-.039.011-.058l.549-2.521L5.33,51.014H1.24a1.24,1.24,0,0,1,0-2.479H6.316a1.24,1.24,0,0,1,1.208.96L12.641,71.6a1.239,1.239,0,0,1,0,.543l-.6,2.759a1.012,1.012,0,0,0,1,1.158H36.5a1.24,1.24,0,0,1,0,2.479Zm0,0" transform="translate(0 -44.524)"/><path class="e" d="M301.136,381.605H288.48v2.479h12.656a1.24,1.24,0,1,0,0-2.479Zm0,0" transform="translate(-264.639 -350.067)"/></svg>